<?xml version="1.0" encoding="UTF-8"?>
<svg xmlns="http://www.w3.org/2000/svg" viewBox="0 0 512 512" width="512" height="512">
<path d="M371.49 0.08C378.49 0.08 385.49 0.08 392.49 0.08C396.75 1.78 401.99 1.26 406.49 2.27C416.07 4.4 425.67 7.09 434.6 11.2C464.63 25.01 491.19 50.42 502.8 81.89C505.65 89.61 507.96 97.47 509.73 105.51C510.73 110.01 510.22 115.25 511.92 119.51C511.92 126.51 511.92 133.51 511.92 140.51C510.2 144.76 510.72 150.02 509.74 154.5C506.98 167.09 503.02 179.73 496.79 191.07C484.72 213.07 466.05 229.65 448.53 247.28C428.07 267.88 407.99 289.21 386.61 308.84C376.49 318.13 364.98 325.94 352.57 331.78C349.24 333.34 339.65 335.42 337.58 337.83C334.91 340.94 333.66 348.57 331.76 352.54C327.52 361.36 322.32 369.45 316.72 377.48C310.87 385.87 302.72 393.05 295.53 400.28C284.15 411.74 272.74 423.15 261.28 434.53C251.25 444.5 241.32 454.56 231.28 464.53C221.95 473.8 212.64 483.66 201.4 490.65C190.6 497.36 178.92 503.4 166.63 506.81C162.58 507.93 158.29 509.07 154.16 509.8C149.8 510.57 144.6 510.26 140.51 511.92C133.51 511.92 126.51 511.92 119.51 511.92C115.25 510.22 110.01 510.73 105.51 509.73C95.92 507.62 86.34 504.91 77.4 500.8C47.37 486.99 20.81 461.58 9.2 430.11C6.35 422.39 4.04 414.53 2.27 406.49C1.27 401.99 1.78 396.75 0.08 392.49C0.08 385.49 0.08 378.49 0.08 371.49C1.8 367.24 1.27 361.98 2.26 357.5C5.04 344.92 9 332.27 15.22 320.94C27.31 298.94 45.94 282.36 63.47 264.72C83.93 244.12 104.01 222.79 125.39 203.16C135.5 193.88 147.03 186.06 159.43 180.23C162.76 178.66 172.35 176.59 174.42 174.17C177.09 171.06 178.34 163.43 180.24 159.46C184.48 150.64 189.68 142.55 195.28 134.52C201.13 126.13 209.28 118.95 216.47 111.72C227.85 100.26 239.26 88.85 250.72 77.47C260.75 67.5 270.68 57.44 280.72 47.47C290.05 38.2 299.36 28.34 310.6 21.35C321.4 14.64 333.08 8.6 345.37 5.19C349.42 4.07 353.71 2.93 357.84 2.2C362.2 1.43 367.4 1.74 371.49 0.08ZM297.5 130.13C298.66 133.27 300.55 135.36 299.76 139.06C298.78 143.66 294.43 146.85 291.29 150.03C284.75 156.66 278.08 163.15 271.54 169.78C269.07 172.29 265.14 175.03 263.77 178.25C267.18 180.89 271.82 182.01 275.58 184.2C286.34 190.46 296.43 197.64 305.35 206.4C314.35 215.23 321.45 225.63 327.8 236.42C330.01 240.17 331.11 244.82 333.75 248.23C337.7 246.57 341.42 241.3 344.46 238.22C351.99 230.59 359.59 222.99 367.22 215.46C379.72 203.14 392.14 190.72 404.46 178.22C411.38 171.2 420.16 164.42 424.81 155.6C435.15 136.02 434.37 110.02 416.93 94.33C404.18 82.85 387.99 77.73 370.98 81.25C367.31 82.01 363.22 83.44 359.91 85.2C355.31 87.64 350.46 92.2 344.83 90.85C342.58 90.31 341.28 88.84 339.52 87.55C334.71 80.39 338.63 74.77 344.97 70.71C354.34 64.71 365.65 60.92 376.78 60.22C412.25 57.98 443.57 82.33 450.76 116.93C454.88 136.74 448.94 157.76 436.78 173.55C431.73 180.11 425.2 185.76 419.35 191.6C401.18 209.76 383.01 227.93 364.85 246.11C359.36 251.6 353.97 257.23 348.35 262.6C345.84 265 342.69 267.01 340.56 269.75C341.06 278.95 343.22 287.9 343.33 297.25C343.38 301.58 341.79 310.07 343.04 313.75C347.47 313.4 359.56 305.17 363.39 302.17C380.74 288.57 395.97 271.88 411.38 256.13C422.5 244.77 433.77 233.5 445.13 222.38C460.65 207.19 475.01 192.15 483.71 171.99C509.56 112.08 473.96 42.23 412.49 24.27C403.41 21.62 393.71 20.33 384.25 20.06C362.35 19.43 339.54 25.97 321.39 38.17C309.15 46.41 298.89 57.37 288.62 67.87C276.18 80.58 263.58 93.18 250.87 105.62C226.87 129.11 204.02 148.52 193.22 181.42C178.8 225.4 196.95 275.25 233.58 302.19C241.04 307.68 250.56 314.34 259.75 316.22C265.43 309.73 263.2 291.39 261.17 283.66C257.8 270.81 247.4 263.1 240.25 252.51C232.59 241.17 228.58 227.45 228.45 213.75C228.16 181.94 247.32 165.69 267.89 145.14C272.79 140.23 282.79 127.41 289.75 127.14C292.9 127.02 294.93 128.96 297.5 130.13ZM176.84 25.19C182.62 24.29 187.48 29.29 187.95 34.75C188.45 40.67 188 46.81 188 52.75C188 64.92 188 77.08 188 89.25C188 96.04 187.11 104.73 178.25 104.94C172.51 105.08 168.33 100.19 168.02 94.75C167.03 77.38 168 59.66 168 42.25C168 35.14 167.96 26.57 176.84 25.19ZM84.85 76.65C91.34 75.36 96.15 81.98 100.21 86.05C108.19 94.07 116.23 102.03 124.21 110.04C127.97 113.81 132.36 117.4 135.69 121.55C139.05 125.74 139.79 131.86 135.62 135.87C131.4 139.94 125.43 138.98 121.29 135.46C110.55 126.33 101.05 115.16 91.05 105.21C86.75 100.92 79.86 96.05 77.3 90.46C74.48 84.3 78.68 77.89 84.85 76.65ZM325.7 101.92C326.33 103.25 327.44 104.4 327.82 105.85C329.44 112.06 325 118.91 318.26 118.79C315.43 118.74 313.56 116.95 311.15 115.98C310.06 113.54 308.42 111.65 308.45 108.75C308.5 102.4 314.82 97.6 320.97 99.27C322.78 99.77 324.18 100.97 325.7 101.92ZM36.82 168.18C44.06 166.9 52.4 168 59.75 168C72.35 168 85.17 167.3 97.75 168.02C103.49 168.35 108.7 173.12 107.83 179.2C106.82 186.38 100.46 188 94.25 188C80.42 188 66.58 188 52.75 188C47.03 188 39.11 189.43 33.8 186.94C24.79 182.72 27.57 169.81 36.82 168.18ZM252.25 195.78C246.57 202.28 248.8 220.61 250.83 228.34C254.2 241.19 264.6 248.9 271.75 259.49C279.38 270.78 283.16 284.15 283.54 297.75C284.36 327.82 266.84 344.14 247.36 363.61C232.35 378.6 217.36 393.61 202.36 408.61C190.16 420.79 178.35 435.52 162.99 443.71C149.27 451.03 132.28 453.95 116.92 450.77C71.26 441.31 46.11 391.33 68.11 349.35C75.05 336.11 86.95 326.1 97.39 315.64C114.55 298.47 131.72 281.3 148.89 264.14C153.81 259.23 158.62 254.2 163.65 249.4C166.15 247.01 169.31 244.99 171.43 242.25C170.94 232.71 168.77 223.67 168.65 213.75C168.61 209.71 170.18 201.64 168.95 198.25C164.51 198.61 152.45 206.83 148.61 209.83C131.27 223.43 116.03 240.13 100.62 255.87C89.51 267.23 78.23 278.51 66.87 289.62C51.35 304.81 37 319.85 28.29 340.01C2.4 399.92 38.08 469.76 99.52 487.73C108.59 490.38 118.29 491.67 127.75 491.94C149.65 492.57 172.46 486.03 190.61 473.83C202.85 465.59 213.11 454.62 223.38 444.13C235.81 431.42 248.42 418.81 261.13 406.38C285.12 382.9 308 363.46 318.77 330.57C333.18 286.61 315.07 236.73 278.42 209.81C270.96 204.33 261.44 197.65 252.25 195.78ZM178.25 263.77C174.3 265.43 170.58 270.7 167.54 273.78C159.93 281.5 152.15 289.06 144.54 296.78C132.29 309.2 119.79 321.36 107.54 333.78C101.1 340.31 93.04 346.58 88.27 354.5C76.33 374.27 77.63 401.28 95.06 417.68C99.36 421.73 103.92 424.46 109.1 427.18C113.53 429.5 118.6 430.67 123.52 431.25C147.74 434.12 159.33 423.13 175.22 407.46C182.01 400.76 188.76 394.01 195.46 387.22C201.67 380.93 207.93 374.67 214.22 368.46C222.28 360.52 230.17 352.41 238.22 344.46C241.3 341.42 246.57 337.7 248.23 333.75C244.82 331.11 240.18 329.99 236.42 327.8C225.66 321.54 215.57 314.36 206.65 305.6C197.65 296.77 190.55 286.37 184.2 275.58C181.99 271.83 180.89 267.18 178.25 263.77ZM415.8 323.16C422.79 322.03 430.67 323 437.75 323C450.56 323 463.45 322.55 476.25 323.01C482.05 323.21 487.8 327.8 486.81 334.16C485.98 339.54 481.51 342.81 476.25 342.99C461.46 343.52 446.55 343 431.75 343C426.01 343 417.66 344.55 412.42 341.79C403.85 337.26 406.59 324.66 415.8 323.16ZM381.4 373.7C388.22 372.22 392.94 378.74 397.21 383.04C405.19 391.07 413.23 399.02 421.21 407.05C424.98 410.85 429.24 414.46 432.68 418.57C436.36 422.97 436.8 429.82 431.8 433.55C426.26 437.69 420.54 434.67 416.3 430.46C406.52 420.73 396.82 410.93 387.04 401.21C383 397.19 376.72 392.72 374.29 387.48C371.54 381.55 375.3 375.03 381.4 373.7ZM331.4 407.22C337.33 406.03 342.49 411.11 342.95 416.75C343.44 422.67 343 428.81 343 434.75C343 446.92 343 459.08 343 471.25C343 478.02 342.06 486.66 333.25 486.91C327.51 487.07 323.34 482.17 323.02 476.75C322.02 459.55 323 441.99 323 424.75C323 417.59 322.6 409 331.4 407.22Z" fill="#000000" fill-rule="evenodd" stroke="#000000" stroke-width="0.25" stroke-linejoin="round"/>
<path d="M339.52 87.55C334.92 92.34 330.31 97.13 325.7 101.92C324.18 100.97 322.78 99.77 320.97 99.27C314.82 97.6 308.5 102.4 308.45 108.75C308.42 111.65 310.06 113.54 311.15 115.98C306.6 120.69 302.05 125.41 297.5 130.13C294.93 128.96 292.9 127.02 289.75 127.14C282.79 127.41 272.79 140.23 267.89 145.14C247.32 165.69 228.16 181.94 228.45 213.75C228.58 227.45 232.59 241.17 240.25 252.51C247.4 263.1 257.8 270.81 261.17 283.66C263.2 291.39 265.43 309.73 259.75 316.22C250.56 314.34 241.04 307.68 233.58 302.19C196.95 275.25 178.8 225.4 193.22 181.42C204.02 148.52 226.87 129.11 250.87 105.62C263.58 93.18 276.18 80.58 288.62 67.87C298.89 57.37 309.15 46.41 321.39 38.17C339.54 25.97 362.35 19.43 384.25 20.06C393.71 20.33 403.41 21.62 412.49 24.27C473.96 42.23 509.56 112.08 483.71 171.99C475.01 192.15 460.65 207.19 445.13 222.38C433.77 233.5 422.5 244.77 411.38 256.13C395.97 271.88 380.74 288.57 363.39 302.17C359.56 305.17 347.47 313.4 343.04 313.75C341.79 310.07 343.38 301.58 343.33 297.25C343.22 287.9 341.06 278.95 340.56 269.75C342.69 267.01 345.84 265 348.35 262.6C353.97 257.23 359.36 251.6 364.85 246.11C383.01 227.93 401.18 209.76 419.35 191.6C425.2 185.76 431.73 180.11 436.78 173.55C448.94 157.76 454.88 136.74 450.76 116.93C443.57 82.33 412.25 57.98 376.78 60.22C365.65 60.92 354.34 64.71 344.97 70.71C338.63 74.77 334.71 80.39 339.52 87.55Z" fill="#94e0fe" fill-rule="evenodd" stroke="#94e0fe" stroke-width="0.25" stroke-linejoin="round"/>
<path d="M252.25 195.78C261.44 197.65 270.96 204.33 278.42 209.81C315.07 236.73 333.18 286.61 318.77 330.57C308 363.46 285.12 382.9 261.13 406.38C248.42 418.81 235.81 431.42 223.38 444.13C213.11 454.62 202.85 465.59 190.61 473.83C172.46 486.03 149.65 492.57 127.75 491.94C118.29 491.67 108.59 490.38 99.52 487.73C38.08 469.76 2.4 399.92 28.29 340.01C37 319.85 51.35 304.81 66.87 289.62C78.23 278.51 89.51 267.23 100.62 255.87C116.03 240.13 131.27 223.43 148.61 209.83C152.45 206.83 164.51 198.61 168.95 198.25C170.18 201.64 168.61 209.71 168.65 213.75C168.77 223.67 170.94 232.71 171.43 242.25C169.31 244.99 166.15 247.01 163.65 249.4C158.62 254.2 153.81 259.23 148.89 264.14C131.72 281.3 114.55 298.47 97.39 315.64C86.95 326.1 75.05 336.11 68.11 349.35C46.11 391.33 71.26 441.31 116.92 450.77C132.28 453.95 149.27 451.03 162.99 443.71C178.35 435.52 190.16 420.79 202.36 408.61C217.36 393.61 232.35 378.6 247.36 363.61C266.84 344.14 284.36 327.82 283.54 297.75C283.16 284.15 279.38 270.78 271.75 259.49C264.6 248.9 254.2 241.19 250.83 228.34C248.8 220.61 246.57 202.28 252.25 195.78Z" fill="#ffe470" fill-rule="evenodd" stroke="#ffe470" stroke-width="0.25" stroke-linejoin="round"/>
</svg>